# xmcd CD database file
#
# Track frame offsets:
#	150
#	76990
#	92954
#	122198
#	137943
#	155389
#	176941
#	194881
#	215225
#	239429
#	260557
#	282392
#	299733
#
# Disc length: 4253 seconds
#
# Revision: 2
# Processed by: cddbd v1.4b41PL1 Copyright (c) Steve Scherf et al.
# Submitted via: Feurio! 1.52 - http://www.feurio.com
#
DISCID=e0109b0d
DTITLE=Jürgen Kerth - Best Of Blues
DYEAR=1900
DGENRE=
TTITLE0=Gloriosa
TTITLE1=Helmut
TTITLE2=He, junge Mutti
TTITLE3=Martha
TTITLE4=Und sie ist glücklich dazu
TTITLE5=O' wie würd' ich euch beneiden
TTITLE6=Ich liebe die Eine
TTITLE7=Geburtstag im Internat
TTITLE8=Blues von der grauen Maus
TTITLE9=Ich finde keine Ruh
TTITLE10=Komm herein
TTITLE11=Soll das alles sein
TTITLE12=Kerth's Reggae
EXTD=
EXTT0=Einstimmung, Gloriosa, Laß uns sie besuchen, Von drinnen nach draußen, 
EXTT0=Gloriosa-Blues, Ausklang
EXTT1=
EXTT2=
EXTT3=
EXTT4=
EXTT5=
EXTT6=
EXTT7=
EXTT8=
EXTT9=
EXTT10=
EXTT11=
EXTT12=
PLAYORDER=
